<?xml version="1.0" encoding="UTF-8"?><svg id="Layer_2" xmlns="http://www.w3.org/2000/svg" viewBox="0 0 1024 1024"><defs><style>.cls-1{fill:#fff;}.cls-2{fill:#f33;}</style></defs><g id="Layer_1-2"><rect class="cls-2" width="1024" height="1024"/><g><path class="cls-1" d="M623.18,779c-4.24,0-8.04-1.79-10.97-4.14-2-1.76-3.21-4.08-3.21-7.37v-236.48h-66v13h15.97c6.35,0,11.81,2.01,16.16,5.77,3.17,2.71,4.87,7.13,4.87,13v201c0,4.71-1.46,8.14-4.17,10.72-2.59,2.59-6.7,4.5-12.11,4.5h-20.11c-6.35,0-11.09-2.1-14.62-5.39-3.53-3.4-5-8.18-5-14.41v-98.56c0-12.22-5.46-22.62-15.81-31.21-10.36-8.46-25.45-12.69-45.09-12.69-21.29,0-38.57,4.81-51.74,14.45-1.49,1.1-2.92,2.22-4.24,3.35,4.81-8.98,7.23-19.66,7.23-32.09,0-21.27-7.65-38.51-22.94-51.68-15.29-13.16-37.47-19.77-66.51-19.77H196v13h19.51c8.47,0,14.04,1.49,17.1,3.84,3.05,2.35,4.39,6.12,4.39,11.41v207.88c0,3.52-1.04,6.3-3.51,8.42-2.35,2-5.93,3.45-11.1,3.45h-26.38v14h126v-14h-30.28c-5.53,0-10.33-1.86-13.62-4.69-2.47-2.23-4.1-5.89-4.1-11.06v-89.25h47.36c28.46,0,52.4-7.59,71.8-22.99,.58-.46,1.12-.88,1.68-1.35-2.06,4.31-3.11,8.8-3.11,13.42,0,6.23,1.94,11.36,5.82,15.35,4,4,8.94,6,14.82,6,5.52,0,9.99-1.64,13.41-4.93,3.41-3.4,5.12-7.76,5.12-13.05,0-3.64-1.71-7.81-5.12-12.52-2.82-3.76-4.24-6.52-4.24-8.29,0-3.05,2.65-6.17,7.94-9.35,7.41-4.23,15.95-5.98,26.19-5.98,11.06,0,19.92,2.8,27.1,9.15,7.17,6.35,10.24,13.99,10.24,22.92v25.04c-33,3.76-59.87,11.35-80.1,22.75-20.11,11.29-29.9,25.51-29.9,42.67,0,11.4,4.54,20.75,13.36,28.03,8.82,7.29,21.76,10.93,38.7,10.93,11.87,0,21.42-1.94,29.89-5.82,8.27-3.9,18.06-11.51,28.06-22.81v29.82h147v-14h-16.82Zm-264.43-131.26c-9.88,9.29-26.06,14.26-48.52,14.26h-36.24v-102.75c0-6.11,2.09-10.04,5.51-12.51,3.53-2.47,12.41-3.16,25.46-3.16,19.76,0,33.63,1.04,42.22,4.92,8.7,3.88,15.33,9.87,19.81,17.98,4.46,8,6.73,19.68,6.73,34.73,0,21.52-4.98,37.14-14.97,46.54Zm134.24,74.96c0,15.87-4.59,29.09-14.82,39.67-10.12,10.46-21.85,15.69-35.73,15.69-7.77,0-13.93-2.52-18.75-7.58-4.82-5.17-7.17-12.28-7.17-21.33,0-12.93,4.15-22.92,13.44-29.97,12.47-9.28,33.02-15.99,63.02-20.1v23.63Z"/><path class="cls-1" d="M824.26,449.47c-5.13-14.89-14.81-24.54-29.05-29.11-14.16-4.75-34-2.69-59.53,6.1l-50.23,18.47c-11.74,4.05-20.22,5.37-25.44,3.96-5.22-1.41-8.74-4.77-10.58-10.1-2.26-6.56-1.38-12.43,2.64-17.63,4.05-5.06,14-10.32,29.85-15.78l22.32-7.69c12.15-4.18,23.64-12.04,34.49-23.57,10.98-11.57,17.79-22.85,20.42-33.85,2.59-11.12,1.83-22.63-2.26-34.51-2.36-6.82-5.63-12.8-9.84-17.93-4.26-5.25-10.7-10.9-19.34-16.94,3.34-8.03,7.33-12.84,11.98-14.44,2.59-.89,5.39,.77,7.89,4.49,6.02,8.63,12.92,11.59,20.7,8.91,4.1-1.41,7.08-4.27,8.96-8.59,1.96-4.49,2.08-9.27,.34-14.32-2.16-6.28-6.25-10.83-12.26-13.65-6.01-2.81-12.43-3.05-19.25-.7-11.47,3.96-21.9,14.93-30.81,33.42-10.26-2.73-20.29-3.93-30.11-3.61-9.81,.33-19.5,2.13-29.05,5.43-23.35,8.05-40.16,20.86-50.44,38.45-3.42,5.85-5.9,10.71-7.47,17.71h-56.19v14.91c12,.35,19.08,2.12,23.09,5.29,4.11,3.06,5.91,7.41,5.91,13.05v61.89c0,15.99-4.15,29.33-13.43,40.02-9.18,10.58-20.1,15.87-33.27,15.87-10.71,0-19.95-3.64-26.76-10.93-6.71-7.29-10.53-17.63-10.53-31.03v-109.06h-58v14.91c11,.24,18.04,1.53,21.57,3.88,5.06,3.29,7.43,8.11,7.43,14.46v71.76c0,12.74,1.96,23.46,4.94,32.21-8.83,9.29-19.19,13.94-31.53,13.94-10.7,0-19.35-3.64-26.17-10.93-2.85-3.1-5.06-6.72-6.7-10.93-2.04-5.46-3.97-12.34-5.87-20.63-4.94-21.51-9.34-35.73-13.22-42.67-3.76-7.05-8.81-12.75-15.16-17.1-5.42-3.81-14.65-7.66-27.69-11.56-2.18-.65-4.45-1.31-6.84-1.96,23.05-2.35,39.93-6.17,50.63-11.46,10.82-5.41,19.05-12.57,24.7-21.51,5.76-9.05,8.86-19.07,8.86-30.59,0-19.27-7.45-35.11-21.91-46.99-14.35-11.87-34.58-17.81-60.69-17.81H196v14h26.13c5.53,0,9.37,.9,12.08,3.13,2.7,2.24,3.79,5.37,3.79,9.83v208.58c0,3.88-1.08,6.91-3.79,9.14-2.59,2.24-6.43,3.32-12.08,3.32h-26.13v13h122v-13h-25.3c-6,0-10.97-1.09-13.79-3.32-2.24-1.76-3.91-4.79-3.91-9.14v-102.54h22.47c11.29,0,20.99,1.8,29.11,5.79,0,0-.05-.06,1.12,.53,7.43,3.91,12.92,8.92,16.48,15.13,3.88,6.58,6.71,17.67,8.47,33.3,3.05,26.92,5.82,41.57,8.29,47.92,3.18,8.47,7.88,14.86,14.11,19.21,6.08,4.16,12.98,6.13,21.11,6.31h1.09s.94,0,.94,0h4.39c24.67,0,47.64-6.54,65.91-20.13,1.7,2.7,3.62,5.11,5.78,7.19,10.11,10,22.64,13.02,37.58,13.02,10.23,0,19.84-2.94,29.84-8.82,10-5.87,20.31-12.67,29.31-24.3v32.84h60v-13.45l-11.02-.28c-6.35,0-11.23-1.64-14.75-4.94-3.53-3.4-5.23-8.23-5.23-14.46v-98.06c4,11.62,10.5,20.97,19.45,28.04,8.97,7,20.35,11.7,34.16,14.12-12.06,9.35-19.77,18.26-23.1,26.75-3.26,8.3-3.38,16.82-.37,25.56,3.25,9.43,9.38,16.17,18.42,20.24,8.98,3.94,20.8,5.07,35.45,3.69-7.17,4.13-13.22,8.78-18.15,12.78h18.96l.8-.92c8.39-10.68,25.14-20.78,50.26-29.43,15.56-5.36,27.8-8.16,36.7-8.48,8.94-.18,16.09,1.5,21.42,5.01,5.38,3.65,9.03,8.14,10.96,13.74,2.1,6.1,1.66,13.08-1.33,20.08h18.63c6.27-13,6.94-28.18,2-42.53Zm-517.27-97.47h-31.99v-95.08c0-4.7,2.2-7.99,5.5-9.87,3.29-1.99,11.63-2.46,25.51-2.46,21.05,0,35.82,.93,43,3.87,7.17,2.94,13,8.41,17.36,16.4,4.46,8,6.74,18.87,6.74,32.62,0,19.99-5.86,34.47-17.62,42.34-11.65,7.76-27.8,12.19-48.5,12.19Zm328.79-5.43c-5.55-16.11-5.9-29.97-1.03-41.58,4.82-11.74,13.3-19.7,25.45-23.89,12.15-4.18,23.78-2.99,34.9,3.56,11.25,6.52,19.63,17.76,25.13,33.74,5.92,17.22,6.52,31.83,1.8,43.84-4.63,11.83-13.09,19.86-25.38,24.09-12.29,4.23-24.02,3-35.17-3.7-11.21-6.83-19.78-18.85-25.7-36.06Z"/></g></g></svg>